<?xml version="1.0" encoding="UTF-8" standalone="no"?>
<!-- Created with Inkscape (http://www.inkscape.org/) -->

<svg
   version="1.1"
   id="svg1"
   width="180"
   height="53.333332"
   viewBox="0 0 180 53.333332"
   sodipodi:docname="PWA.ai"
   xmlns:inkscape="http://www.inkscape.org/namespaces/inkscape"
   xmlns:sodipodi="http://sodipodi.sourceforge.net/DTD/sodipodi-0.dtd"
   xmlns="http://www.w3.org/2000/svg"
   xmlns:svg="http://www.w3.org/2000/svg">
  <defs
     id="defs1">
    <clipPath
       clipPathUnits="userSpaceOnUse"
       id="clipPath2">
      <path
         d="M 0,40 H 135 V 0 H 0 Z"
         transform="translate(-130.197)"
         id="path2" />
    </clipPath>
    <clipPath
       clipPathUnits="userSpaceOnUse"
       id="clipPath4">
      <path
         d="M 0,40 H 135 V 0 H 0 Z"
         transform="translate(-134.032,-4.7320001)"
         id="path4" />
    </clipPath>
    <clipPath
       clipPathUnits="userSpaceOnUse"
       id="clipPath6">
      <path
         d="M 0,40 H 135 V 0 H 0 Z"
         transform="translate(-40.564501,-14.7437)"
         id="path6" />
    </clipPath>
    <clipPath
       clipPathUnits="userSpaceOnUse"
       id="clipPath8">
      <path
         d="M 0,40 H 135 V 0 H 0 Z"
         transform="translate(-36.683101,-11.8099)"
         id="path8" />
    </clipPath>
    <clipPath
       clipPathUnits="userSpaceOnUse"
       id="clipPath10">
      <path
         d="M 0,40 H 135 V 0 H 0 Z"
         transform="translate(-16.2712,-24.4217)"
         id="path10" />
    </clipPath>
  </defs>
  <sodipodi:namedview
     id="namedview1"
     pagecolor="#ffffff"
     bordercolor="#000000"
     borderopacity="0.25"
     inkscape:showpageshadow="2"
     inkscape:pageopacity="0.0"
     inkscape:pagecheckerboard="0"
     inkscape:deskcolor="#d1d1d1">
    <inkscape:page
       x="0"
       y="0"
       inkscape:label="1"
       id="page1"
       width="180"
       height="53.333332"
       margin="0"
       bleed="0" />
  </sodipodi:namedview>
  <g
     id="layer-MC2"
     inkscape:groupmode="layer"
     inkscape:label="US UK">
    <path
       id="path1"
       d="m 0,0 h -125.468 c -2.607,0 -4.729,2.128 -4.729,4.733 v 30.541 c 0,2.606 2.122,4.726 4.729,4.726 H 0 c 2.606,0 4.803,-2.12 4.803,-4.726 V 4.733 C 4.803,2.128 2.606,0 0,0"
       style="fill:#a6a6a6;fill-opacity:1;fill-rule:nonzero;stroke:none"
       transform="matrix(1.3333333,0,0,-1.3333333,173.596,53.333333)"
       clip-path="url(#clipPath2)" />
    <path
       id="path3"
       d="m 0,0 c 0,-2.116 -1.714,-3.83 -3.834,-3.83 h -125.469 c -2.119,0 -3.839,1.714 -3.839,3.83 v 30.543 c 0,2.115 1.72,3.835 3.839,3.835 H -3.835 c 2.121,0 3.834,-1.72 3.834,-3.835 z"
       style="fill:#000000;fill-opacity:1;fill-rule:nonzero;stroke:none"
       transform="matrix(1.3333333,0,0,-1.3333333,178.70933,47.024)"
       clip-path="url(#clipPath4)" />
    <path
       id="path5"
       d="m 0,0 1.257,3.178 h 3.629 l -1.722,4.821 2.153,5.447 6.17,-16.38 H 6.937 L 5.883,0 Z"
       style="fill:#ffffff;fill-opacity:1;fill-rule:nonzero;stroke:none"
       transform="matrix(1.3333333,0,0,-1.3333333,54.086,33.675067)"
       clip-path="url(#clipPath6)" />
    <path
       id="path7"
       d="M 0,0 6.604,16.38 H 2.226 L -2.292,5.795 -5.504,16.38 H -8.87 L -12.319,5.795 -14.752,10.618 -16.953,3.836 -14.718,0 h 4.309 L -7.292,9.493 -4.32,0 Z"
       style="fill:#5a0fc8;fill-opacity:1;fill-rule:nonzero;stroke:none"
       transform="matrix(1.3333333,0,0,-1.3333333,48.9108,37.5868)"
       clip-path="url(#clipPath8)" />
    <path
       id="path9"
       d="M 0,0 C 0.391,-0.393 0.586,-0.92 0.586,-1.58 0.586,-2.244 0.414,-2.771 0.071,-3.161 -0.306,-3.594 -1,-3.81 -2.011,-3.81 H -3.57 v 4.4 H -2 c 0.943,0 1.609,-0.197 2,-0.59 m -3.57,-6.989 h 2.697 c 0.817,0 1.545,0.092 2.183,0.274 l 0.697,2.149 1.949,6.005 C 3.808,1.674 3.638,1.897 3.448,2.107 2.447,3.215 0.982,3.768 -0.945,3.768 h -6.781 v -16.38 h 4.156 z"
       style="fill:#ffffff;fill-opacity:1;fill-rule:nonzero;stroke:none"
       transform="matrix(1.3333333,0,0,-1.3333333,21.694933,20.771067)"
       clip-path="url(#clipPath10)" />
    <path
       id="path11"
       d="M 0.78564687,4.84375e-5 V -5.7187016 H 1.4536156 v 5.12109379 H 3.9731469 V 4.84375e-5 Z m 6.68261723,0 L 7.3393578,-0.60932656 h -0.023437 c -0.2197266,0.26660156 -0.4335937,0.45117187 -0.6445312,0.55078125 -0.2109375,0.09375 -0.4775391,0.140625 -0.796875,0.140625 -0.421875,0 -0.7558594,-0.10839844 -0.9960938,-0.328125 -0.2431641,-0.21679688 -0.3632812,-0.53027344 -0.3632812,-0.93749999 0,-0.8671875 0.6914062,-1.3183594 2.0742187,-1.359375 l 0.7265625,-0.023437 v -0.2695313 c 0,-0.3339843 -0.076172,-0.5800781 -0.2226562,-0.7382812 -0.140625,-0.1640625 -0.3691407,-0.2460938 -0.6796875,-0.2460938 -0.3603516,0 -0.7675782,0.1113282 -1.21875,0.328125 l -0.1992193,-0.492188 c 0.2109375,-0.1171875 0.4394531,-0.2050781 0.6914063,-0.2695312 0.2578125,-0.070312 0.5097656,-0.1054688 0.7617187,-0.1054688 0.5068359,0 0.8818359,0.1171875 1.125,0.3515625 0.2490234,0.2285157 0.375,0.5917969 0.375,1.0898438 V 4.84375e-5 Z M 6.0034203,-0.45698281 c 0.4042969,0 0.7207031,-0.10839844 0.9492188,-0.328125 0.234375,-0.22558589 0.3515625,-0.53906249 0.3515625,-0.93749999 v -0.3867188 l -0.6445313,0.035156 c -0.515625,0.017578 -0.890625,0.09375 -1.125,0.234375 -0.2285156,0.140625 -0.3398437,0.3632812 -0.3398437,0.6679687 0,0.23437504 0.070312,0.41601566 0.2109375,0.53906254 0.1464843,0.1171875 0.3457031,0.17578125 0.5976562,0.17578155 z M 9.8999047,-4.2890141 v 2.7890625 c 0,0.3457032 0.076172,0.60351566 0.2343753,0.77343754 0.155273,0.17285156 0.404297,0.2578125 0.75,0.2578125 0.445312,0 0.767578,-0.12011719 0.972656,-0.36328125 0.210937,-0.24023439 0.316406,-0.63867189 0.316406,-1.19531249 v -2.2617188 h 0.65625 V 4.84375e-5 H 12.29053 L 12.19678,-0.57417031 h -0.03516 c -0.134765,0.2109375 -0.322265,0.375 -0.5625,0.4921875 -0.234375,0.10839844 -0.500976,0.1640625 -0.796875,0.1640625 -0.524414,0 -0.9140621,-0.12304688 -1.1718746,-0.375 C 9.3725609,-0.54194375 9.2436547,-0.93745156 9.2436547,-1.4765141 v -2.8125 z M 17.133303,4.84375e-5 V -2.7655766 c 0,-0.3515625 -0.08203,-0.6123046 -0.246094,-0.7851562 -0.158203,-0.1699219 -0.404297,-0.2578125 -0.738281,-0.2578125 -0.454101,0 -0.785156,0.1230469 -0.996094,0.3632812 -0.205078,0.2431641 -0.304687,0.6416016 -0.304687,1.1953125 V 4.84375e-5 H 14.203616 V -4.2890141 h 0.527343 l 0.105469,0.5976563 h 0.02344 c 0.131836,-0.2167969 0.319336,-0.3808594 0.5625,-0.4921875 0.240234,-0.1171875 0.506836,-0.1757813 0.796875,-0.1757813 0.515625,0 0.902343,0.1259766 1.160156,0.375 0.263672,0.2519532 0.398437,0.6503907 0.398437,1.1953125 V 4.84375e-5 Z M 20.827639,0.08207969 c -0.626953,0 -1.110352,-0.19042969 -1.453125,-0.57421875 -0.336914,-0.38085938 -0.503906,-0.91992184 -0.503906,-1.61718754 0,-0.7177734 0.169922,-1.2714843 0.515625,-1.6640625 0.351562,-0.3896484 0.84375,-0.5859375 1.476562,-0.5859375 0.210938,0 0.416016,0.023437 0.621094,0.070312 0.202148,0.041016 0.363281,0.09082 0.480469,0.1523438 l -0.199219,0.5507812 c -0.140625,-0.052734 -0.298828,-0.099609 -0.46875,-0.140625 -0.164062,-0.038086 -0.313477,-0.058594 -0.445312,-0.058594 -0.867188,0 -1.300782,0.5566406 -1.300782,1.6640625 0,0.5244141 0.105469,0.9257812 0.316407,1.20703124 0.210937,0.28125 0.521484,0.421875 0.9375,0.421875 0.357421,0 0.726562,-0.0732422 1.101562,-0.22265625 v 0.57421875 C 21.615725,0.00590781 21.255373,0.08207969 20.827639,0.08207969 Z M 25.852053,4.84375e-5 V -2.7655766 c 0,-0.3515625 -0.08203,-0.6123046 -0.246094,-0.7851562 -0.158203,-0.1699219 -0.404297,-0.2578125 -0.738281,-0.2578125 -0.454101,0 -0.785156,0.1259766 -0.996094,0.375 -0.205078,0.2431641 -0.304687,0.6416016 -0.304687,1.1953125 V 4.84375e-5 H 22.922366 V -6.0819828 h 0.644531 v 1.8398437 c 0,0.2285157 -0.01172,0.4101563 -0.03516,0.5507813 h 0.04687 c 0.123046,-0.2021484 0.304687,-0.3632813 0.539062,-0.4804688 0.234375,-0.1230468 0.503906,-0.1875 0.808594,-0.1875 0.521484,0 0.914062,0.1259766 1.171875,0.375 0.263672,0.2519532 0.398437,0.6503907 0.398437,1.1953125 V 4.84375e-5 Z m 6.688477,0 -0.128907,-0.6093749975 h -0.02344 c -0.219727,0.26660156 -0.433594,0.45117187 -0.644531,0.55078125 -0.210938,0.09375 -0.477539,0.140625 -0.796875,0.140625 -0.421875,0 -0.75586,-0.10839844 -0.996094,-0.328125 -0.243164,-0.21679688 -0.363281,-0.53027344 -0.363281,-0.93749999 0,-0.8671875 0.691406,-1.3183594 2.074218,-1.359375 l 0.726563,-0.023437 v -0.2695313 c 0,-0.3339843 -0.07617,-0.5800781 -0.222656,-0.7382812 -0.140625,-0.1640625 -0.369141,-0.2460938 -0.679688,-0.2460938 -0.360351,0 -0.767578,0.1113282 -1.21875,0.328125 L 30.06787,-3.9843261 c 0.210938,-0.1171875 0.439454,-0.2050781 0.691407,-0.2695312 0.257812,-0.070312 0.509765,-0.1054688 0.761718,-0.1054688 0.506836,0 0.881836,0.1171875 1.125,0.3515625 0.249024,0.2285157 0.375,0.5917969 0.375,1.0898438 V 4.84375e-5 Z M 31.075686,-0.45698281 c 0.404297,0 0.720703,-0.10839844 0.949219,-0.328125 0.234375,-0.22558589 0.351562,-0.53906249 0.351562,-0.93749999 v -0.3867188 l -0.644531,0.035156 c -0.515625,0.017578 -0.890625,0.09375 -1.125,0.234375 -0.228516,0.140625 -0.339844,0.3632812 -0.339844,0.6679687 0,0.23437504 0.07031,0.41601566 0.210938,0.53906254 0.146484,0.1171875 0.345703,0.17578125 0.597656,0.17578155 z m 6.041016,-0.71484379 c 0,0.39843754 -0.149415,0.70898441 -0.445313,0.92578129 -0.298828,0.21972656 -0.711914,0.328125 -1.242187,0.328125 -0.57129,0 -1.016602,-0.08789063 -1.335938,-0.26953125 v -0.609375 c 0.210938,0.11132812 0.433594,0.19628906 0.667969,0.2578125 0.234375,0.0556641 0.459961,0.0820312 0.679687,0.0820312 0.333985,0 0.591797,-0.0527344 0.773438,-0.1640625 0.1875,-0.10839844 0.28125,-0.27246094 0.28125,-0.49218744 0,-0.1640625 -0.07617,-0.3046875 -0.222656,-0.421875 -0.140625,-0.1230469 -0.421875,-0.2636719 -0.84375,-0.421875 -0.398438,-0.1464845 -0.685547,-0.2753907 -0.855469,-0.3867188 -0.164063,-0.1171875 -0.290039,-0.2460937 -0.375,-0.3867187 -0.0791,-0.140625 -0.117188,-0.3076173 -0.117188,-0.5039063 0,-0.3427735 0.140625,-0.6152343 0.421875,-0.8203125 0.28711,-0.2021485 0.679688,-0.3046875 1.171875,-0.3046875 0.459961,0 0.914063,0.09375 1.359375,0.28125 l -0.234375,0.5273438 c -0.430664,-0.1787109 -0.820312,-0.2695314 -1.171875,-0.2695314 -0.304687,0 -0.536133,0.052734 -0.691406,0.1523439 -0.158203,0.09375 -0.234375,0.2285156 -0.234375,0.3984375 0,0.1113281 0.02637,0.2080077 0.08203,0.2929686 0.06152,0.079102 0.155274,0.1582033 0.28125,0.2343751 0.131836,0.070312 0.386719,0.1728515 0.761719,0.3046875 0.506836,0.1875 0.84668,0.375 1.019531,0.5625 0.178711,0.1875 0.269532,0.421875 0.269533,0.703125 z m 0,0"
       style="fill:#ffffff;fill-opacity:1;fill-rule:nonzero;stroke:none"
       aria-label="Launch as"
       transform="matrix(1.3333333,0,0,1.3333333,80.616533,19.269467)" />
    <path
       id="path12"
       d="M 10.547366,0.001025 H 8.7661156 L 7.0668969,-5.9638187 C 6.9965844,-6.2216312 6.9057641,-6.5966312 6.7973656,-7.0888187 6.6860375,-7.5810062 6.6215844,-7.92085 6.5981469,-8.10835 6.5512719,-7.8183109 6.4751,-7.4403812 6.3754906,-6.9716312 c -0.102539,0.4628906 -0.1875,0.8085937 -0.2578125,1.0429687 L 4.4653344,0.001025 h -1.78125 L 1.3950219,-5.0028812 0.08252187,-9.9950687 H 1.7465844 L 3.1762719,-4.17085 c 0.2255859,0.9375 0.3867187,1.7636719 0.4804687,2.4726563 0.052734,-0.3808594 0.1289063,-0.8115235 0.2226563,-1.2890625 0.099609,-0.4833985 0.1933593,-0.8730469 0.28125,-1.171875 l 1.6289062,-5.8359375 h 1.6171875 l 1.6640625,5.8710937 c 0.1640625,0.5390625 0.3310547,1.3476563 0.5039063,2.4257813 0.070312,-0.647461 0.234375,-1.4765625 0.4921876,-2.484375 l 1.429687,-5.8125 h 1.652344 z m 7.148437,0.140625 c -1.180664,0 -2.103515,-0.34277344 -2.765625,-1.03125 -0.65625,-0.6855469 -0.984375,-1.6318359 -0.984375,-2.8359375 0,-1.2333984 0.304688,-2.203125 0.914063,-2.90625 0.615234,-0.7089844 1.464843,-1.0664062 2.542968,-1.0664062 0.999024,0 1.78711,0.3046875 2.367188,0.9140625 0.577148,0.6035156 0.867187,1.4355468 0.867187,2.4960937 V -3.42085 h -5.039062 c 0.02344,0.7353516 0.216797,1.3007813 0.585937,1.6992188 0.375,0.3925781 0.902344,0.5859375 1.582032,0.5859375 0.445312,0 0.858398,-0.038086 1.242187,-0.1171875 0.389649,-0.084961 0.808594,-0.2285157 1.253906,-0.4335938 v 1.3125 c -0.398437,0.1875 -0.796875,0.32226563 -1.195312,0.3984375 C 18.668459,0.10063438 18.211428,0.14165 17.695803,0.14165 Z m -0.292969,-6.6210937 c -0.515625,0 -0.925781,0.1640625 -1.230468,0.4921875 -0.304688,0.3222656 -0.489258,0.7910156 -0.550782,1.40625 h 3.433594 c -0.0088,-0.6240235 -0.161133,-1.0957032 -0.457031,-1.4179688 -0.290039,-0.3193359 -0.688477,-0.4804687 -1.195313,-0.4804687 z m 8.920899,-1.21875 c 0.9375,0 1.666992,0.3457031 2.191406,1.03125 0.530274,0.6796875 0.796875,1.6376953 0.796875,2.8710937 0,1.2421875 -0.266601,2.2119141 -0.796875,2.90625 -0.533203,0.68847656 -1.274414,1.03125 -2.226562,1.03125 -0.955079,0 -1.696289,-0.34277344 -2.226563,-1.03125 H 23.956545 L 23.663577,0.001025 H 22.456545 V -10.6396 h 1.605469 v 2.53125 c 0,0.1875 -0.01172,0.4658203 -0.03516,0.8320313 -0.01758,0.3691406 -0.0293,0.6035156 -0.03516,0.703125 h 0.07031 c 0.515625,-0.75 1.268555,-1.125 2.261719,-1.125 z m -0.421875,1.3125 c -0.650391,0 -1.119141,0.1933593 -1.40625,0.5742187 -0.28125,0.375 -0.427735,1.0136719 -0.433594,1.9101563 V -3.79585 c 0,0.9228516 0.143555,1.5908203 0.433594,2.0039063 0.295898,0.4160156 0.773437,0.6210937 1.429687,0.6210937 0.56836,0 1.001953,-0.2255859 1.300782,-0.6796875 0.295898,-0.4511719 0.445312,-1.1044922 0.445312,-1.9570312 0,-1.7167969 -0.591797,-2.578125 -1.769531,-2.578125 z M 41.194827,0.001025 40.198733,-2.7763187 H 36.366702 L 35.394045,0.001025 h -1.722656 l 3.738281,-10.042969 h 1.78125 l 3.738282,10.042969 z m -1.429688,-4.1835937 -0.9375,-2.71875 c -0.07031,-0.1875 -0.169922,-0.4746094 -0.292969,-0.8671875 -0.117187,-0.3896485 -0.199218,-0.6738282 -0.246093,-0.8554688 -0.117188,0.5566406 -0.298829,1.1689453 -0.539063,1.8398438 L 36.84717,-4.1825687 Z M 47.903811,0.14165 c -0.955078,0 -1.696289,-0.34277344 -2.226563,-1.03125 h -0.09375 c 0.06152,0.6328125 0.09375,1.01953125 0.09375,1.16015625 V 3.3643063 H 44.07178 v -10.921875 h 1.300781 c 0.03809,0.140625 0.111328,0.477539 0.222656,1.0078125 h 0.08203 c 0.498047,-0.7646485 1.253907,-1.1484375 2.261719,-1.1484375 0.9375,0 1.666992,0.3457031 2.191406,1.03125 0.530274,0.6796875 0.796875,1.6376953 0.796875,2.8710937 0,1.2363281 -0.269531,2.2001953 -0.808593,2.89453125 C 49.585452,-0.20405312 48.84717,0.14165 47.903811,0.14165 Z m -0.386719,-6.5273437 c -0.641601,0 -1.110351,0.1875 -1.40625,0.5625 -0.290039,0.375 -0.433594,0.9726562 -0.433594,1.7929687 v 0.234375 c 0,0.9228516 0.143555,1.5908203 0.433594,2.0039063 0.295899,0.4160156 0.773438,0.6210937 1.429688,0.6210937 0.5625,0 0.990234,-0.2255859 1.289062,-0.6796875 0.304688,-0.4599609 0.457031,-1.1132812 0.457031,-1.9570312 0,-0.8496094 -0.152343,-1.491211 -0.457031,-1.921875 -0.298828,-0.4365235 -0.735351,-0.65625 -1.3125,-0.65625 z M 56.625491,0.14165 c -0.955078,0 -1.696289,-0.34277344 -2.226563,-1.03125 h -0.09375 c 0.06152,0.6328125 0.09375,1.01953125 0.09375,1.16015625 V 3.3643063 h -1.605469 v -10.921875 h 1.300782 c 0.03809,0.140625 0.111328,0.477539 0.222656,1.0078125 h 0.08203 c 0.498047,-0.7646485 1.253906,-1.1484375 2.261719,-1.1484375 0.9375,0 1.666992,0.3457031 2.191406,1.03125 0.530274,0.6796875 0.796875,1.6376953 0.796875,2.8710937 0,1.2363281 -0.269531,2.2001953 -0.808594,2.89453125 C 58.307131,-0.20405312 57.56885,0.14165 56.625491,0.14165 Z m -0.386719,-6.5273437 c -0.641602,0 -1.110352,0.1875 -1.40625,0.5625 -0.290039,0.375 -0.433594,0.9726562 -0.433594,1.7929687 v 0.234375 c 0,0.9228516 0.143555,1.5908203 0.433594,2.0039063 0.295898,0.4160156 0.773437,0.6210937 1.429687,0.6210937 0.5625,0 0.990235,-0.2255859 1.289063,-0.6796875 0.304687,-0.4599609 0.457031,-1.1132812 0.457031,-1.9570312 0,-0.8496094 -0.152344,-1.491211 -0.457031,-1.921875 -0.298828,-0.4365235 -0.735352,-0.65625 -1.3125,-0.65625 z m 0,0"
       style="fill:#ffffff;fill-opacity:1;fill-rule:nonzero;stroke:none"
       aria-label="Web App"
       transform="matrix(1.3333333,0,0,1.3333333,80.616533,37.936133)" />
  </g>
</svg>
