<?xml version="1.0" encoding="UTF-8" standalone="no"?>
<!-- Created with Inkscape (http://www.inkscape.org/) -->

<svg
   version="1.1"
   id="svg1"
   width="198"
   height="59"
   viewBox="0 0 198 60"
   sodipodi:docname="pwa.svg"
   inkscape:version="1.3 (0e150ed, 2023-07-21)"
   xmlns:inkscape="http://www.inkscape.org/namespaces/inkscape"
   xmlns:sodipodi="http://sodipodi.sourceforge.net/DTD/sodipodi-0.dtd"
   xmlns="http://www.w3.org/2000/svg"
   xmlns:svg="http://www.w3.org/2000/svg">
  <defs
     id="defs1">
    <clipPath
       clipPathUnits="userSpaceOnUse"
       id="clipPath2">
      <path
         d="M 0,40 H 135 V 0 H 0 Z"
         transform="translate(-130.197)"
         id="path2" />
    </clipPath>
    <clipPath
       clipPathUnits="userSpaceOnUse"
       id="clipPath4">
      <path
         d="M 0,40 H 135 V 0 H 0 Z"
         transform="translate(-134.032,-4.7320001)"
         id="path4" />
    </clipPath>
    <clipPath
       clipPathUnits="userSpaceOnUse"
       id="clipPath6">
      <path
         d="M 0,40 H 135 V 0 H 0 Z"
         transform="translate(-40.564501,-14.7437)"
         id="path6" />
    </clipPath>
    <clipPath
       clipPathUnits="userSpaceOnUse"
       id="clipPath8">
      <path
         d="M 0,40 H 135 V 0 H 0 Z"
         transform="translate(-36.683101,-11.8099)"
         id="path8" />
    </clipPath>
    <clipPath
       clipPathUnits="userSpaceOnUse"
       id="clipPath10">
      <path
         d="M 0,40 H 135 V 0 H 0 Z"
         transform="translate(-16.2712,-24.4217)"
         id="path10" />
    </clipPath>
  </defs>
  <sodipodi:namedview
     id="namedview1"
     pagecolor="#ffffff"
     bordercolor="#000000"
     borderopacity="0.25"
     inkscape:showpageshadow="2"
     inkscape:pageopacity="0.0"
     inkscape:pagecheckerboard="0"
     inkscape:deskcolor="#d1d1d1"
     inkscape:zoom="4.8944444"
     inkscape:cx="90"
     inkscape:cy="26.662883"
     inkscape:window-width="2560"
     inkscape:window-height="1440"
     inkscape:window-x="0"
     inkscape:window-y="0"
     inkscape:window-maximized="0"
     inkscape:current-layer="layer-MC2">
    <inkscape:page
       x="0"
       y="0"
       inkscape:label="1"
       id="page1"
       width="180"
       height="53.333332"
       margin="0"
       bleed="0" />
  </sodipodi:namedview>
  <g
     id="layer-MC2"
     inkscape:groupmode="layer"
     inkscape:label="US UK">
    <path
       id="path1"
       d="m 0,0 h -125.468 c -2.607,0 -4.729,2.128 -4.729,4.733 v 30.541 c 0,2.606 2.122,4.726 4.729,4.726 H 0 c 2.606,0 4.803,-2.12 4.803,-4.726 V 4.733 C 4.803,2.128 2.606,0 0,0"
       style="fill:#a6a6a6;fill-opacity:1;fill-rule:nonzero;stroke:none"
       transform="matrix(1.4666667,0,0,-1.5,190.9556,60.000001)"
       clip-path="url(#clipPath2)" />
    <path
       id="path3"
       d="m 0,0 c 0,-2.116 -1.714,-3.83 -3.834,-3.83 h -125.469 c -2.119,0 -3.839,1.714 -3.839,3.83 v 30.543 c 0,2.115 1.72,3.835 3.839,3.835 H -3.835 c 2.121,0 3.834,-1.72 3.834,-3.835 z"
       style="fill:#000000;fill-opacity:1;fill-rule:nonzero;stroke:none"
       transform="matrix(1.4666667,0,0,-1.5,196.58026,52.902001)"
       clip-path="url(#clipPath4)" />
    <path
       id="path5"
       d="m 0,0 1.257,3.178 h 3.629 l -1.722,4.821 2.153,5.447 6.17,-16.38 H 6.937 L 5.883,0 Z"
       style="fill:#ffffff;fill-opacity:1;fill-rule:nonzero;stroke:none"
       transform="matrix(1.4666667,0,0,-1.5,59.494601,37.884452)"
       clip-path="url(#clipPath6)" />
    <path
       id="path7"
       d="M 0,0 6.604,16.38 H 2.226 L -2.292,5.795 -5.504,16.38 H -8.87 L -12.319,5.795 -14.752,10.618 -16.953,3.836 -14.718,0 h 4.309 L -7.292,9.493 -4.32,0 Z"
       style="fill:#5a0fc8;fill-opacity:1;fill-rule:nonzero;stroke:none"
       transform="matrix(1.4666667,0,0,-1.5,53.801881,42.285152)"
       clip-path="url(#clipPath8)" />
    <path
       id="path9"
       d="M 0,0 C 0.391,-0.393 0.586,-0.92 0.586,-1.58 0.586,-2.244 0.414,-2.771 0.071,-3.161 -0.306,-3.594 -1,-3.81 -2.011,-3.81 H -3.57 v 4.4 H -2 c 0.943,0 1.609,-0.197 2,-0.59 m -3.57,-6.989 h 2.697 c 0.817,0 1.545,0.092 2.183,0.274 l 0.697,2.149 1.949,6.005 C 3.808,1.674 3.638,1.897 3.448,2.107 2.447,3.215 0.982,3.768 -0.945,3.768 h -6.781 v -16.38 h 4.156 z"
       style="fill:#ffffff;fill-opacity:1;fill-rule:nonzero;stroke:none"
       transform="matrix(1.4666667,0,0,-1.5,23.864426,23.367451)"
       clip-path="url(#clipPath10)" />
    <path
       id="path11"
       d="m 89.830469,21.678223 v -8.578124 h 0.979688 v 7.681641 h 3.695313 v 0.896483 z m 9.801173,0 -0.189063,-0.914062 h -0.03437 c -0.322266,0.399902 -0.635938,0.676757 -0.945313,0.826172 -0.309374,0.140625 -0.70039,0.210937 -1.168749,0.210937 -0.618751,0 -1.108595,-0.162597 -1.460938,-0.492187 -0.35664,-0.325195 -0.532812,-0.79541 -0.532812,-1.40625 0,-1.300781 1.014062,-1.97754 3.042187,-2.039063 l 1.065625,-0.03515 v -0.404298 c 0,-0.500976 -0.111719,-0.870117 -0.326562,-1.107421 -0.20625,-0.246095 -0.541407,-0.369142 -0.996875,-0.369142 -0.528516,0 -1.125781,0.166993 -1.7875,0.492188 l -0.292189,-0.738281 c 0.309375,-0.175782 0.644531,-0.307618 1.014063,-0.404298 0.378125,-0.105468 0.747656,-0.158203 1.117187,-0.158203 0.74336,0 1.29336,0.175781 1.65,0.527344 0.365237,0.342774 0.549997,0.887696 0.549997,1.634766 v 4.376952 z m -2.148438,-0.685546 c 0.592969,0 1.057032,-0.162598 1.392188,-0.492188 0.34375,-0.338379 0.515624,-0.808593 0.515624,-1.406249 v -0.580079 l -0.945312,0.05274 c -0.75625,0.02636 -1.30625,0.140624 -1.65,0.351561 -0.335156,0.210938 -0.498437,0.544922 -0.498437,1.001954 0,0.351563 0.103124,0.624023 0.309374,0.808593 0.214845,0.175782 0.507032,0.263673 0.876563,0.263673 z m 5.714846,-5.748047 v 4.183593 c 0,0.518556 0.11171,0.905274 0.34375,1.160156 0.22773,0.259278 0.59296,0.38672 1.09999,0.38672 0.65313,0 1.12579,-0.180176 1.42657,-0.544922 0.30938,-0.360352 0.46406,-0.958008 0.46406,-1.792969 V 15.24463 h 0.9625 v 6.433593 h -0.79062 l -0.1375,-0.861328 h -0.0516 c -0.19765,0.316406 -0.47265,0.5625 -0.825,0.738281 -0.34375,0.162599 -0.73476,0.246094 -1.16875,0.246094 -0.76914,0 -1.34063,-0.18457 -1.71875,-0.5625 -0.37812,-0.373535 -0.56718,-0.966797 -0.56718,-1.77539 v -4.21875 z m 10.60898,6.433593 v -4.148437 c 0,-0.527344 -0.12031,-0.918457 -0.36093,-1.177735 -0.23203,-0.254882 -0.59298,-0.386718 -1.08282,-0.386718 -0.66602,0 -1.15156,0.18457 -1.46094,0.544922 -0.30078,0.364746 -0.44687,0.962402 -0.44687,1.792969 v 3.374999 h -0.94531 V 15.24463 h 0.77343 l 0.1547,0.896484 h 0.0344 c 0.19336,-0.325195 0.46837,-0.571289 0.825,-0.738281 0.35234,-0.175781 0.74336,-0.263672 1.16875,-0.263672 0.75625,0 1.32344,0.188965 1.70157,0.5625 0.38671,0.37793 0.58437,0.975586 0.58437,1.792969 v 4.183593 z m 5.41837,0.123047 c -0.91954,0 -1.62852,-0.285644 -2.13126,-0.861328 -0.49414,-0.571288 -0.73906,-1.379883 -0.73906,-2.425781 0,-1.07666 0.24922,-1.907226 0.75625,-2.496094 0.51562,-0.584472 1.2375,-0.878906 2.16562,-0.878906 0.30938,0 0.61016,0.03515 0.91094,0.105468 0.29648,0.06152 0.53281,0.13623 0.70469,0.228516 l -0.29219,0.826172 c -0.20625,-0.0791 -0.43828,-0.149414 -0.6875,-0.210938 -0.24062,-0.05713 -0.45977,-0.08789 -0.65312,-0.08789 -1.27188,0 -1.90782,0.834961 -1.90782,2.496094 0,0.786621 0.15469,1.388672 0.46407,1.810547 0.30937,0.421875 0.76484,0.632812 1.375,0.632812 0.52421,0 1.06562,-0.109863 1.61562,-0.333984 v 0.861328 c -0.42539,0.219727 -0.95391,0.333985 -1.58124,0.333984 z m 7.36913,-0.123047 v -4.148437 c 0,-0.527344 -0.12031,-0.918457 -0.36094,-1.177735 -0.23203,-0.254882 -0.59296,-0.386718 -1.08281,-0.386718 -0.66601,0 -1.15156,0.188965 -1.46093,0.5625 -0.30079,0.364746 -0.44688,0.962403 -0.44688,1.792969 v 3.357421 h -0.94532 v -9.123046 h 0.94532 v 2.759765 c 0,0.342774 -0.0172,0.615234 -0.0516,0.826172 h 0.0687 c 0.18047,-0.303223 0.44688,-0.544922 0.79063,-0.720703 0.34375,-0.18457 0.73907,-0.28125 1.18594,-0.28125 0.76484,0 1.34062,0.188965 1.71874,0.5625 0.38673,0.37793 0.58438,0.975586 0.58438,1.792969 v 4.183593 z m 9.80977,0 -0.18907,-0.914062 h -0.0344 c -0.32226,0.399902 -0.63593,0.676757 -0.94531,0.826172 -0.30937,0.140625 -0.70039,0.210937 -1.16875,0.210937 -0.61875,0 -1.10859,-0.162597 -1.46093,-0.492187 -0.35664,-0.325195 -0.53282,-0.79541 -0.53282,-1.40625 0,-1.300781 1.01407,-1.97754 3.0422,-2.039063 l 1.06561,-0.03515 v -0.404298 c 0,-0.500976 -0.11171,-0.870117 -0.32656,-1.107421 -0.20625,-0.246095 -0.5414,-0.369142 -0.99687,-0.369142 -0.52852,0 -1.12578,0.166993 -1.7875,0.492188 l -0.2922,-0.738281 c 0.30938,-0.175782 0.64453,-0.307618 1.01406,-0.404297 0.37813,-0.105468 0.74766,-0.158203 1.11719,-0.158203 0.74336,0 1.29336,0.175781 1.65,0.527344 0.36523,0.342773 0.55,0.887695 0.55,1.634766 v 4.376951 z m -2.14844,-0.685546 c 0.59297,0 1.05703,-0.162598 1.39219,-0.492188 0.34375,-0.338379 0.51562,-0.808593 0.51562,-1.406249 v -0.580079 l -0.9453,0.05274 c -0.75626,0.02636 -1.30626,0.140624 -1.65001,0.351561 -0.33516,0.210938 -0.49844,0.544922 -0.49844,1.001954 0,0.351563 0.10312,0.624023 0.30938,0.808593 0.21484,0.175782 0.50703,0.263673 0.87656,0.263673 z m 8.86016,-1.072266 c 0,0.597656 -0.21914,1.063477 -0.65313,1.388672 -0.43828,0.32959 -1.04414,0.492187 -1.82187,0.492187 -0.8379,0 -1.49102,-0.131836 -1.95938,-0.404296 v -0.914063 c 0.30937,0.166992 0.63594,0.294434 0.97969,0.386719 0.34375,0.08349 0.67461,0.123047 0.99688,0.123047 0.48983,0 0.86796,-0.0791 1.13437,-0.246094 0.27499,-0.162597 0.41249,-0.408691 0.41249,-0.738281 0,-0.246094 -0.1117,-0.457032 -0.32655,-0.632813 -0.20625,-0.18457 -0.61875,-0.395507 -1.2375,-0.632812 -0.58438,-0.219727 -1.00547,-0.413086 -1.25469,-0.580079 -0.24062,-0.175781 -0.42539,-0.36914 -0.55,-0.580077 -0.11601,-0.210938 -0.17188,-0.461427 -0.17188,-0.75586 0,-0.51416 0.20626,-0.922852 0.61876,-1.230469 0.42108,-0.303223 0.99687,-0.457031 1.71875,-0.457031 0.6746,0 1.34061,0.140625 1.99374,0.421875 l -0.34375,0.791015 c -0.63164,-0.268065 -1.20312,-0.404296 -1.71874,-0.404296 -0.44688,0 -0.78634,0.0791 -1.01407,0.228515 -0.23203,0.140626 -0.34375,0.342774 -0.34375,0.597656 0,0.166993 0.0387,0.312012 0.12031,0.439453 0.0903,0.118653 0.22774,0.237306 0.41251,0.351563 0.19336,0.105468 0.56718,0.259277 1.11718,0.457032 0.74336,0.28125 1.24179,0.562499 1.49531,0.84375 0.26211,0.281249 0.39532,0.632812 0.39532,1.054687 z m 0,0"
       style="fill:#ffffff;fill-opacity:1;fill-rule:nonzero;stroke:none;stroke-width:1.48324"
       aria-label="Launch as" />
    <path
       id="path12"
       d="m 104.14765,42.679689 h -2.61249 l -2.49219,-8.947266 c -0.103125,-0.386719 -0.236328,-0.949219 -0.395313,-1.6875 -0.163281,-0.738281 -0.257812,-1.248048 -0.292187,-1.529297 -0.06875,0.435058 -0.180469,1.001953 -0.326563,1.705078 -0.15039,0.694336 -0.275,1.212891 -0.378124,1.564453 l -2.423438,8.894532 h -2.6125 l -1.890625,-7.50586 -1.925,-7.488281 h 2.440625 l 2.096874,8.736328 c 0.33086,1.406249 0.567189,2.645508 0.704689,3.708984 0.07734,-0.571289 0.189061,-1.217285 0.326562,-1.933593 0.146093,-0.725098 0.283593,-1.309571 0.4125,-1.757813 l 2.389062,-8.753906 h 2.371875 l 2.440633,8.80664 c 0.24062,0.808594 0.48554,2.021485 0.73905,3.638672 0.10313,-0.971191 0.34375,-2.214843 0.72188,-3.726562 l 2.09688,-8.71875 h 2.42343 z m 10.48438,0.210937 c -1.73164,0 -3.08516,-0.51416 -4.05624,-1.546876 -0.96251,-1.02832 -1.44376,-2.447753 -1.44376,-4.253906 0,-1.850097 0.44688,-3.304687 1.34063,-4.359375 0.90234,-1.063476 2.14843,-1.599609 3.72969,-1.599609 1.46522,0 2.62109,0.457031 3.47187,1.371093 0.84648,0.905274 1.27187,2.153321 1.27187,3.744141 v 1.300782 h -7.39062 c 0.0344,1.103028 0.31797,1.951172 0.85937,2.548828 0.55001,0.588868 1.32344,0.878906 2.32032,0.878906 0.65312,0 1.25898,-0.05713 1.82187,-0.17578 0.57149,-0.127442 1.18594,-0.342774 1.83906,-0.650391 v 1.968749 c -0.58437,0.28125 -1.16875,0.483399 -1.75312,0.597656 -0.58437,0.114258 -1.25469,0.175782 -2.01094,0.175782 z m -0.42968,-9.931641 c -0.75625,0 -1.35782,0.246094 -1.8047,0.738281 -0.44686,0.483399 -0.71757,1.186524 -0.80781,2.109375 h 5.03594 c -0.0129,-0.936035 -0.23633,-1.643554 -0.67031,-2.126953 -0.4254,-0.479003 -1.00976,-0.720703 -1.75312,-0.720703 z m 13.08398,-1.828125 c 1.375,0 2.44492,0.518554 3.21406,1.546875 0.77774,1.019531 1.16875,2.456543 1.16875,4.30664 0,1.863282 -0.39101,3.317872 -1.16875,4.359375 -0.78203,1.032716 -1.86914,1.546876 -3.26562,1.546876 -1.40078,0 -2.48789,-0.51416 -3.26563,-1.546876 h -0.15468 l -0.42969,1.335939 h -1.77031 V 26.718751 h 2.35468 v 3.796875 c 0,0.281249 -0.0172,0.698731 -0.0516,1.248046 -0.0258,0.553711 -0.0429,0.905274 -0.0516,1.054689 h 0.10312 c 0.75625,-1.125001 1.86054,-1.687501 3.31718,-1.687501 z m -0.61875,1.96875 c -0.95391,0 -1.64141,0.290039 -2.06251,0.861329 -0.41249,0.562499 -0.62733,1.520507 -0.63593,2.865234 v 0.158202 c 0,1.384278 0.21054,2.386231 0.63593,3.00586 0.43399,0.624023 1.13438,0.93164 2.09688,0.93164 0.8336,0 1.46953,-0.338379 1.90782,-1.01953 0.43398,-0.676759 0.65312,-1.656739 0.65312,-2.935548 0,-2.575194 -0.86797,-3.867187 -2.59531,-3.867187 z m 22.42969,9.580079 -1.46094,-4.166016 h -5.62031 l -1.42656,4.166016 h -2.52657 l 5.48281,-15.064455 h 2.6125 l 5.48282,15.064455 z m -2.09688,-6.275391 -1.37499,-4.078125 c -0.10313,-0.28125 -0.24923,-0.711914 -0.4297,-1.300782 -0.17187,-0.584472 -0.29218,-1.010742 -0.36093,-1.283203 -0.17188,0.834962 -0.43829,1.753418 -0.79063,2.759765 l -1.32344,3.902345 z m 11.93672,6.486328 c -1.40078,0 -2.48789,-0.51416 -3.26563,-1.546876 h -0.1375 c 0.0902,0.949219 0.1375,1.529298 0.1375,1.740235 V 47.72461 H 153.3168 V 31.341797 h 1.90781 c 0.0559,0.210938 0.16328,0.71631 0.32657,1.511719 h 0.1203 c 0.73047,-1.146972 1.83906,-1.722656 3.31719,-1.722656 1.375,0 2.44492,0.518554 3.21406,1.546875 0.77774,1.019531 1.16875,2.456543 1.16875,4.30664 0,1.854493 -0.39531,3.300293 -1.18593,4.341798 -0.78203,1.045898 -1.86485,1.564453 -3.24844,1.564453 z m -0.56719,-9.791016 c -0.94102,0 -1.62852,0.28125 -2.06249,0.84375 -0.42539,0.562501 -0.63595,1.458984 -0.63595,2.689454 v 0.351561 c 0,1.384278 0.21056,2.386231 0.63595,3.00586 0.43397,0.624023 1.13436,0.93164 2.09686,0.93164 0.82501,0 1.45235,-0.338379 1.89063,-1.01953 0.44688,-0.689942 0.67032,-1.669922 0.67032,-2.935548 0,-1.274414 -0.22344,-2.236815 -0.67032,-2.882811 -0.43828,-0.654786 -1.07851,-0.984376 -1.925,-0.984376 z m 13.35899,9.791016 c -1.40078,0 -2.48789,-0.51416 -3.26563,-1.546876 h -0.1375 c 0.0902,0.949219 0.1375,1.529298 0.1375,1.740235 V 47.72461 H 166.1086 V 31.341797 h 1.90781 c 0.0559,0.210938 0.16327,0.71631 0.32656,1.511719 h 0.12031 c 0.73047,-1.146972 1.83906,-1.722656 3.31719,-1.722656 1.375,0 2.44492,0.518554 3.21406,1.546875 0.77773,1.019531 1.16875,2.456543 1.16875,4.30664 0,1.854493 -0.39531,3.300293 -1.18594,4.341798 -0.78202,1.045898 -1.86484,1.564453 -3.24843,1.564453 z m -0.56719,-9.791016 c -0.94102,0 -1.62852,0.28125 -2.0625,0.84375 -0.4254,0.562501 -0.63594,1.458984 -0.63594,2.689454 v 0.351561 c 0,1.384278 0.21054,2.386231 0.63594,3.00586 0.43398,0.624023 1.13437,0.93164 2.09687,0.93164 0.825,0 1.45235,-0.338379 1.89063,-1.01953 0.44687,-0.689942 0.67032,-1.669922 0.67032,-2.935548 0,-1.274414 -0.22345,-2.236815 -0.67032,-2.882811 -0.43828,-0.654786 -1.07852,-0.984376 -1.925,-0.984376 z m 0,0"
       style="fill:#ffffff;fill-opacity:1;fill-rule:nonzero;stroke:none;stroke-width:1.48324"
       aria-label="Web App" />
  </g>
</svg>
