<?xml version="1.0" standalone="no"?>
<!DOCTYPE svg PUBLIC "-//W3C//DTD SVG 20010904//EN"
 "http://www.w3.org/TR/2001/REC-SVG-20010904/DTD/svg10.dtd">
<svg version="1.0" xmlns="http://www.w3.org/2000/svg"
 width="512.000000pt" height="512.000000pt" viewBox="0 0 512.000000 512.000000"
 preserveAspectRatio="xMidYMid meet">
<metadata>
Created by potrace 1.14, written by Peter Selinger 2001-2017
</metadata>
<g transform="translate(0.000000,512.000000) scale(0.100000,-0.100000)"
fill="#000000" stroke="none">
<path d="M430 5097 c0 -31 -31 -47 -107 -54 -52 -5 -67 -10 -71 -25 -2 -10
-24 -27 -49 -38 -35 -15 -48 -28 -63 -63 -11 -25 -28 -47 -38 -49 -15 -4 -20
-18 -25 -67 -6 -69 -28 -111 -57 -111 -20 0 -20 -15 -20 -2125 0 -2110 0
-2125 20 -2125 30 0 52 -43 58 -116 4 -56 8 -67 27 -74 12 -5 25 -19 28 -32 9
-34 47 -75 80 -88 16 -5 31 -19 34 -29 4 -15 18 -20 71 -26 75 -7 112 -26 112
-55 0 -20 15 -20 2130 -20 2114 0 2130 0 2130 20 0 26 42 46 115 55 48 5 63
11 70 28 6 11 23 25 39 30 38 13 63 39 74 79 5 22 15 34 29 36 17 3 21 13 27
68 8 80 23 113 53 120 l23 6 0 2119 c0 2103 0 2119 -20 2119 -27 0 -47 43 -55
122 -6 52 -11 67 -25 71 -11 3 -25 20 -33 39 -14 34 -63 78 -86 78 -6 0 -18
11 -26 24 -13 19 -27 24 -76 29 -67 6 -109 28 -109 57 0 20 -15 20 -2130 20
l-2130 0 0 -23z m1167 -331 c22 -19 25 -26 15 -38 -7 -8 -15 -37 -18 -64 -4
-31 -15 -58 -30 -74 -15 -16 -26 -44 -31 -75 -4 -31 -14 -56 -28 -69 -14 -13
-25 -39 -29 -71 -5 -31 -17 -60 -31 -75 -13 -14 -26 -44 -30 -68 -4 -25 -15
-48 -27 -56 -14 -10 -24 -32 -29 -67 -5 -29 -17 -61 -28 -73 -12 -12 -23 -37
-27 -56 -9 -53 -25 -90 -39 -90 -14 0 -25 -31 -25 -73 0 -16 -10 -38 -25 -53
-14 -14 -25 -35 -25 -47 -1 -35 -27 -100 -44 -109 -9 -5 -16 -17 -16 -26 0
-43 -21 -89 -46 -100 -30 -14 -103 -16 -137 -3 -38 15 -76 55 -83 89 -5 25 -1
36 18 54 17 16 27 39 31 71 4 30 16 60 32 79 14 16 25 41 25 54 0 29 22 75 44
93 9 8 16 26 16 42 0 39 17 79 34 79 9 0 16 17 21 48 6 45 24 82 52 110 7 7
13 29 13 48 0 41 15 74 34 74 8 0 15 19 19 52 5 35 13 58 26 68 12 9 26 41 34
79 9 39 23 71 35 80 12 10 22 33 25 61 3 25 14 51 24 60 10 8 26 27 36 43 17
26 21 27 102 27 74 0 87 -3 112 -24z m2493 -702 c7 -17 9 -557 8 -1519 -3
-1210 -5 -1496 -16 -1507 -10 -10 -162 -13 -768 -13 -660 0 -756 2 -764 15
-15 24 -13 3023 2 3038 9 9 194 12 770 12 l758 0 10 -26z m-3211 -614 c35 -5
75 -18 89 -27 13 -10 33 -23 44 -29 34 -20 97 -89 109 -119 7 -16 22 -40 33
-53 18 -21 21 -39 24 -144 4 -139 -1 -177 -27 -205 -10 -11 -22 -30 -26 -44
-9 -26 -84 -109 -101 -109 -6 0 -20 -11 -32 -25 -12 -13 -32 -27 -44 -29 -142
-30 -200 -37 -226 -28 -15 6 -49 14 -76 18 -31 4 -58 15 -72 29 -12 12 -35 27
-52 34 -34 14 -61 43 -79 84 -7 15 -17 27 -22 27 -6 0 -17 23 -25 50 -8 28
-22 60 -30 72 -23 32 -22 170 0 193 9 9 21 37 26 63 5 29 18 56 33 70 14 12
25 27 25 33 0 5 11 14 24 20 13 6 29 22 35 35 6 13 16 24 23 24 6 0 23 11 37
24 20 19 45 27 105 35 44 6 82 14 85 17 3 3 17 3 31 -1 14 -3 54 -10 89 -15z
m862 -10 c31 -17 27 -103 -6 -132 -16 -14 -25 -32 -25 -50 0 -33 -14 -65 -41
-91 -11 -10 -19 -31 -19 -47 0 -38 -14 -74 -40 -100 -12 -12 -20 -33 -20 -55
0 -25 -8 -44 -25 -61 -17 -17 -28 -42 -32 -72 -4 -28 -15 -55 -28 -68 -13 -13
-25 -42 -29 -68 -4 -25 -18 -58 -30 -73 -13 -16 -27 -48 -31 -72 -4 -25 -17
-53 -30 -65 -14 -14 -24 -37 -27 -67 -3 -28 -13 -54 -26 -67 -11 -11 -25 -45
-32 -76 -7 -34 -19 -61 -31 -69 -11 -8 -23 -34 -28 -63 -6 -29 -18 -55 -30
-65 -12 -10 -21 -29 -21 -46 0 -32 -35 -113 -48 -113 -5 0 -12 -22 -16 -50 -4
-33 -15 -57 -30 -72 -13 -13 -26 -40 -30 -63 -3 -22 -13 -46 -23 -52 -23 -17
-214 -18 -231 -1 -7 7 -12 32 -12 55 0 34 6 49 25 67 14 13 25 33 25 45 0 32
27 90 45 97 8 3 15 18 15 33 0 42 19 100 36 109 9 5 20 31 25 57 5 29 19 60
34 75 17 18 25 37 25 62 0 25 9 47 26 68 17 19 28 47 32 75 3 28 14 55 29 71
13 14 28 47 33 72 4 26 17 53 28 62 11 10 22 35 26 65 5 28 18 61 31 77 13 15
26 47 30 70 4 24 17 54 30 68 13 15 25 43 28 70 4 27 13 51 25 61 11 8 23 34
27 57 4 23 20 61 36 84 17 26 29 56 29 76 0 22 9 41 25 58 14 14 25 34 25 45
0 30 27 77 47 82 36 9 185 7 204 -3z m155 -976 c49 -9 85 -23 95 -34 9 -10 32
-25 51 -33 38 -16 78 -60 78 -87 0 -10 8 -20 18 -22 12 -4 23 -21 30 -49 6
-24 20 -62 32 -84 27 -53 28 -143 0 -178 -11 -13 -25 -48 -31 -76 -7 -32 -18
-55 -30 -61 -10 -6 -19 -15 -19 -21 0 -12 -90 -99 -103 -99 -5 0 -16 -9 -26
-21 -13 -16 -35 -23 -100 -30 -46 -5 -91 -14 -100 -19 -11 -6 -22 -5 -27 0 -6
6 -42 14 -82 19 -49 6 -81 16 -103 33 -53 39 -139 125 -139 139 0 7 -12 31
-27 53 -27 38 -28 43 -28 182 0 133 1 144 23 171 12 15 27 40 33 55 6 15 19
30 28 33 10 3 24 16 31 30 7 14 23 27 34 31 12 3 28 15 37 27 12 14 42 26 100
38 106 22 129 23 225 3z m-294 -823 c41 -10 108 -72 108 -101 0 -9 -11 -29
-25 -45 -15 -15 -30 -47 -34 -71 -5 -24 -20 -61 -35 -82 -15 -22 -26 -52 -26
-70 0 -22 -9 -41 -24 -57 -15 -15 -27 -42 -32 -70 -4 -33 -13 -51 -30 -62 -15
-10 -24 -25 -24 -42 0 -42 -19 -97 -40 -116 -10 -9 -22 -37 -26 -62 -4 -29
-15 -53 -30 -66 -17 -15 -24 -31 -24 -58 0 -25 -8 -47 -24 -66 -13 -15 -29
-53 -35 -84 -8 -37 -20 -63 -36 -77 -19 -16 -25 -32 -25 -61 0 -29 -6 -44 -21
-55 -12 -8 -27 -25 -33 -38 -11 -21 -19 -23 -105 -26 -85 -3 -96 -1 -117 19
-21 20 -22 24 -9 43 8 11 15 35 15 54 0 39 23 87 45 95 10 4 15 20 15 47 0 30
7 47 25 66 16 16 27 41 31 73 4 34 15 59 35 81 20 22 29 42 29 66 0 23 8 43
23 58 15 15 26 41 30 71 4 27 17 59 31 75 13 16 27 49 31 76 4 29 15 55 29 68
14 13 25 38 29 65 3 28 13 51 26 60 12 10 23 34 27 59 4 24 17 56 30 71 13 16
26 48 30 72 3 24 12 54 20 66 19 30 77 40 146 24z"/>
<path d="M663 3215 c-16 -14 -36 -31 -45 -38 -22 -15 -34 -111 -24 -191 6 -47
12 -59 30 -66 13 -5 26 -17 28 -28 4 -14 18 -21 53 -25 127 -18 169 -5 224 69
39 52 41 59 41 122 l0 68 -58 57 -58 57 -82 0 c-73 0 -85 -3 -109 -25z"/>
<path d="M1722 2251 c-46 -8 -44 -6 -96 -69 -34 -41 -36 -49 -36 -112 0 -62 3
-71 32 -106 66 -80 83 -89 176 -89 78 0 85 2 105 26 12 14 29 29 38 32 26 9
41 117 28 195 -9 52 -15 65 -35 72 -13 5 -24 16 -24 25 0 23 -111 38 -188 26z"/>
</g>
</svg>
